<svg xmlns="http://www.w3.org/2000/svg" width="32.67" height="32.505" viewBox="0 0 32.67 32.505">
  <g id="edit" transform="translate(0 -0.261)">
    <path id="Path_393" data-name="Path 393" d="M30.153,56.405a.814.814,0,0,0-.814.814v7.224A2.443,2.443,0,0,1,26.9,66.884H4.068a2.443,2.443,0,0,1-2.441-2.441V43.24A2.444,2.444,0,0,1,4.068,40.8h7.224a.814.814,0,0,0,0-1.627H4.068A4.073,4.073,0,0,0,0,43.24v21.2a4.073,4.073,0,0,0,4.068,4.068H26.9a4.073,4.073,0,0,0,4.068-4.068V57.219a.814.814,0,0,0-.814-.814Zm0,0" transform="translate(0 -35.745)" fill="#1062e5"/>
    <path id="Path_394" data-name="Path 394" d="M130.031,1.333a3.661,3.661,0,0,0-5.178,0L110.338,15.849a.813.813,0,0,0-.209.358L108.22,23.1a.813.813,0,0,0,1,1l6.891-1.909a.813.813,0,0,0,.358-.209L130.986,7.466a3.665,3.665,0,0,0,0-5.178ZM112.11,16.378,123.99,4.5l3.831,3.831-11.88,11.88Zm-.765,1.536,3.061,3.061-4.234,1.173Zm18.491-11.6-.863.863-3.832-3.832L126,2.484a2.034,2.034,0,0,1,2.876,0l.955.955A2.037,2.037,0,0,1,129.836,6.315Zm0,0" transform="translate(-99.387)" fill="#1062e5"/>
  </g>
</svg>
