<svg xmlns="http://www.w3.org/2000/svg" width="17" height="17" viewBox="0 0 17 17">
  <g id="Group_67" data-name="Group 67" transform="translate(-22 -83)">
    <g id="icon_home" transform="translate(0.167 72)">
      <path id="Path_357" data-name="Path 357" d="M16.555,5.51,9.117.2A1.063,1.063,0,0,0,7.883.2L.445,5.51A1.063,1.063,0,0,0,1.68,7.24l.445-.318v9.016A1.062,1.062,0,0,0,3.188,17H13.813a1.062,1.062,0,0,0,1.063-1.062V6.922a1.811,1.811,0,0,0,1.061.516,1.063,1.063,0,0,0,.618-1.927Zm-3.8,9.365H10.625V11.688a2.125,2.125,0,0,0-4.25,0v3.188H4.25V5.4L8.5,2.368,12.75,5.4Z" transform="translate(21.833 11)" fill="#a5a4bf"/>
    </g>
  </g>
</svg>
