<svg xmlns="http://www.w3.org/2000/svg" width="306.001" height="49.998" viewBox="0 0 306.001 49.998">
  <g id="Group_98" data-name="Group 98" transform="translate(-761 -984.001)">
    <path id="Subtraction_1" data-name="Subtraction 1" d="M-5622-7845.5h-281a23.354,23.354,0,0,0,16.611-6.891A23.337,23.337,0,0,0-5879.5-7869a23.527,23.527,0,0,0-23.5-23.5h281a23.347,23.347,0,0,1,16.617,6.882A23.345,23.345,0,0,1-5598.5-7869a23.341,23.341,0,0,1-6.883,16.616A23.346,23.346,0,0,1-5622-7845.5Z" transform="translate(6664 8878)" fill="#fff" stroke="#2cb4fb" stroke-width="3"/>
    <g id="Group_96" data-name="Group 96">
      <g id="Group_97" data-name="Group 97">
        <text id="PDF" transform="translate(919 1020)" fill="#5a5a5a" stroke="#5b5b5b" stroke-width="1" font-size="30" font-family="SourceSansPro-Regular, Source Sans Pro" letter-spacing="0.12em"><tspan x="-28.725" y="0">PDF</tspan></text>
      </g>
    </g>
  </g>
</svg>
