<svg xmlns="http://www.w3.org/2000/svg" width="17" height="16.19" viewBox="0 0 17 16.19">
  <g id="profile" transform="translate(-21.93 -173.982)">
    <path id="Path_383" data-name="Path 383" d="M134.533,22.561a4.573,4.573,0,1,0-4.546-4.58A4.564,4.564,0,0,0,134.533,22.561Zm0-7.952a3.372,3.372,0,1,1-3.346,3.372A3.369,3.369,0,0,1,134.533,14.609Z" transform="translate(-104.13 160.567)" fill="#a5a4bf"/>
    <path id="Path_384" data-name="Path 384" d="M.6,347.276H16.4a.6.6,0,0,0,.6-.6,5.734,5.734,0,0,0-5.709-5.746H5.709A5.734,5.734,0,0,0,0,346.672.6.6,0,0,0,.6,347.276Zm5.108-5.142h5.583a4.515,4.515,0,0,1,4.466,3.934H1.242A4.527,4.527,0,0,1,5.709,342.134Z" transform="translate(21.93 -157.104)" fill="#a5a4bf"/>
  </g>
</svg>
